<?xml version="1.0" encoding="utf-8"?>
<!-- Generator: Adobe Illustrator 26.2.1, SVG Export Plug-In . SVG Version: 6.00 Build 0)  -->
<svg version="1.1" id="Layer_1" xmlns="http://www.w3.org/2000/svg" xmlns:xlink="http://www.w3.org/1999/xlink" x="0px" y="0px"
	 viewBox="0 0 150.3 137.9" style="enable-background:new 0 0 150.3 137.9;" xml:space="preserve">
<style type="text/css">
	.st0{fill:#79170F;}
	.st1{fill:#E84241;}
</style>
<path class="st0" d="M147.3,1.1h-19l-24.7,55.5V1.1H88.5h-4h-15l-30,67.3H20.2l30-67.3h-19l-30,67.3l0,0v0.1v0.1l0,0l30,67.3h6.4
	h12.6h19.9h3.5h15.5l-0.1-0.1h14.5V80l24.7,55.5h19l-29.9-67.2L147.3,1.1z M84.5,10.2v39.7H66.8L84.5,10.2z M41.9,117.1L28.5,87
	h19.9l13.4,30.1H41.9z M59.2,68.5h25.3v56.8L59.2,68.5z"/>
<path class="st1" d="M146.1,0h-19l-24.7,55.5V0H87.3h-4h-15l-30,67.3H19L49,0H30L0,67.3l0,0v0.1v0.1l0,0l30,67.3h6.4H49h19.9h3.5
	h15.5l-0.1-0.1h14.5V78.9l24.7,55.5h19l-29.9-67.2L146.1,0z M83.3,9.1v39.7H65.6L83.3,9.1z M40.7,116L27.3,85.9h19.9L60.6,116H40.7z
	 M58,67.4h25.3v56.8L58,67.4z"/>
</svg>
